<svg width="253" height="244" viewBox="0 0 253 244" fill="none" xmlns="http://www.w3.org/2000/svg">
<g clip-path="url(#clip0)">
<path opacity="0.41" d="M246.711 206.331C246.408 206.937 246.106 207.506 245.803 208.088C241.778 215.667 236.518 223.047 228.855 226.87C218.747 231.947 206.701 229.9 195.564 228.015C174.814 224.495 153.575 221.92 132.783 225.18C101.701 230.027 71.7332 247.858 40.7786 242.326C29.8902 240.368 19.7028 235.593 11.2282 228.476C8.03834 225.786 5.06636 222.72 3.17785 219C1.15617 215.116 0.447982 210.711 0.169548 206.331C0.169548 205.986 0.121125 205.634 0.109019 205.295C-0.582226 191.18 2.15519 177.107 8.08677 164.283C13.0986 153.474 20.4226 143.422 22.2385 131.65C24.6597 116.073 16.9906 100.556 17.4688 84.8036C17.7838 77.0843 20.0166 69.5654 23.965 62.9272C27.9135 56.289 33.453 50.7408 40.0825 46.7847C49.4766 41.3318 60.5353 39.3748 70.6013 35.1942C78.2615 31.9997 85.3199 27.5183 91.4718 21.9436C96.4292 17.4843 100.012 10.7833 105.472 7.03292C115.32 0.283426 134.405 -2.05527 144.937 3.39765C150.778 6.42704 155.058 11.6982 159.658 16.4059C171.625 28.6325 186.491 37.545 199.97 48.0812C213.45 58.6175 226.077 71.6197 230.725 88.0693C235.465 104.828 231.379 123.21 236.536 139.823C240.894 153.898 251.668 165.937 252.879 180.623C253.63 189.56 250.73 198.339 246.711 206.331Z" fill="#B83280"/>
<path opacity="0.55" d="M246.711 206.331C246.408 206.937 246.106 207.507 245.803 208.088C241.778 215.668 236.518 223.048 228.855 226.871C218.747 231.948 206.701 229.9 195.564 228.016C174.814 224.496 153.575 221.921 132.783 225.18C101.701 230.027 71.7332 247.858 40.7785 242.327C29.8901 240.369 19.7028 235.594 11.2282 228.476C8.03828 225.786 5.06629 222.72 3.17778 219C1.15611 215.117 0.447914 210.712 0.169479 206.331H246.711Z" fill="#B83280"/>
<path d="M29.3022 223.126C31.8868 226.04 36.1662 226.586 40.0522 226.87C58.1903 228.208 76.4056 228.111 94.5285 226.58C101.187 226.016 107.875 225.253 114.473 224.077C122.481 222.647 130.392 220.6 138.485 219.806C163.816 217.322 189.602 227.186 214.528 222.029C217.403 221.424 220.702 220.212 221.434 217.352C222.082 214.862 220.26 212.263 217.941 211.142C215.623 210.021 212.948 210.027 210.375 210.051C157.334 210.512 104.292 211.178 51.2501 211.433C47.013 211.433 42.4431 210.906 38.3876 212.384C35.0101 213.62 25.5554 218.909 29.3022 223.126Z" fill="url(#paint0_linear)"/>
<path d="M87.1136 30.6748H47.1038C39.1844 30.6748 32.7645 37.101 32.7645 45.0281V202.375C32.7645 210.302 39.1844 216.728 47.1038 216.728H87.1136C95.0331 216.728 101.453 210.302 101.453 202.375V45.0281C101.453 37.101 95.0331 30.6748 87.1136 30.6748Z" fill="#B83280"/>
<path d="M87.1136 30.6748H47.1038C39.1844 30.6748 32.7645 37.101 32.7645 45.0281V202.375C32.7645 210.302 39.1844 216.728 47.1038 216.728H87.1136C95.0331 216.728 101.453 210.302 101.453 202.375V45.0281C101.453 37.101 95.0331 30.6748 87.1136 30.6748Z" fill="url(#paint1_linear)"/>
<path d="M113.026 30.6748H58.8041C49.9219 30.6748 42.7215 37.8822 42.7215 46.773V200.63C42.7215 209.521 49.9219 216.728 58.8041 216.728H113.026C121.908 216.728 129.109 209.521 129.109 200.63V46.773C129.109 37.8822 121.908 30.6748 113.026 30.6748Z" fill="#B83280"/>
<path d="M123.395 44.6887H49.7974V202.429H123.395V44.6887Z" fill="white"/>
<path d="M136.832 172.505L137.087 207.785L133.37 208.137C133.37 208.137 128.558 192.729 129.133 190.415C129.708 188.1 130.949 182.617 130.949 182.617C130.949 182.617 127.317 175.686 127.438 173.529C127.558 172.165 128.059 170.863 128.885 169.772L136.832 172.505Z" fill="#F3BD8F"/>
<path d="M121.343 172.505C121.343 172.505 121.343 178.091 120.768 179.436C120.193 180.781 104.794 205.247 104.794 205.247L102.53 203.272C102.53 203.272 106.719 186.18 109.794 182.714L112.869 179.248L113.341 171.826L121.343 172.505Z" fill="#F3BD8F"/>
<path d="M115.804 87.0093C115.659 85.3734 114.999 83.895 115.32 82.1622C115.865 79.1995 118.649 77.0183 121.597 76.4124C124.545 75.8066 127.614 76.4973 130.453 77.503C132.354 78.0975 134.122 79.0565 135.658 80.3264C139.405 83.6951 139.847 89.2813 141.305 94.1102C141.874 95.9823 142.71 97.903 144.332 99.0239C146.456 100.514 149.32 100.236 151.789 101.011C153.344 101.531 154.726 102.47 155.784 103.723C156.841 104.976 157.535 106.497 157.788 108.118C158.193 110.984 157.273 114.31 159.131 116.528C160.1 117.685 161.667 118.273 162.479 119.557C162.882 120.278 163.143 121.07 163.247 121.89C163.713 124.374 163.853 127.421 161.837 128.918C160.818 129.538 159.652 129.873 158.459 129.887C155.572 130.142 152.594 130.148 149.858 129.209C147.401 128.361 145.264 126.785 143.17 125.258C138.872 122.09 134.556 118.909 130.677 115.237C128.255 112.953 125.992 110.59 123.413 108.488C121.688 107.082 120.387 104.677 118.674 103.471C117.79 102.865 116.712 102.865 115.841 102.041C115.154 101.368 114.645 100.536 114.358 99.6176C113.71 97.5152 114.079 95.2492 114.612 93.1226C115.066 91.305 115.956 89.1783 115.823 87.2819L115.804 87.0093Z" fill="#3E3E54"/>
<path d="M134.623 90.5476C135.435 92.5177 136.108 94.5423 136.639 96.6064C137.244 98.6482 138.067 100.69 139.502 102.271C140.272 102.999 140.996 103.774 141.669 104.592C142.982 106.5 142.831 109.106 142.02 111.257C141.62 112.317 140.918 113.444 139.798 113.619C138.678 113.795 137.752 113.014 136.947 112.262L128.31 104.386C127.099 103.395 126.05 102.221 125.199 100.908C124.079 98.9632 123.885 96.6003 124.133 94.3646C124.284 92.4257 124.907 90.5533 125.949 88.9117C126.784 87.6999 128.897 85.5248 130.562 86.0035C132.402 86.5791 133.885 88.9783 134.623 90.5476Z" fill="url(#paint2_linear)"/>
<path d="M140.973 137.915L161.613 137.643L169.185 161.133L178.355 193.48H157.89L140.973 137.915ZM166.734 161.902L159.755 140.254L144.423 140.46L159.785 190.942H174.96L166.734 161.902Z" fill="#B83280"/>
<path d="M203.209 129.263H170.886V188.197H203.209V129.263Z" fill="#B83280"/>
<path d="M203.209 129.263H170.886V188.197H203.209V129.263Z" fill="url(#paint3_linear)"/>
<path d="M196.72 129.409V146.888L185.032 187.913H200.903L204.371 175.486L203.215 129.263L196.72 129.409Z" fill="url(#paint4_linear)"/>
<path d="M229.276 141.143L203.903 133.966L190.842 180.23L216.214 187.408L229.276 141.143Z" fill="#B83280"/>
<path d="M229.278 141.073L203.905 133.896L190.843 180.16L216.216 187.338L229.278 141.073Z" fill="url(#paint5_linear)"/>
<path d="M173.029 210.7C172.45 209.741 172.263 208.597 172.505 207.503C172.747 206.41 173.401 205.452 174.33 204.829C175.259 204.205 176.392 203.963 177.495 204.154C178.597 204.345 179.584 204.953 180.25 205.853C180.601 206.326 180.852 206.866 180.988 207.439C181.124 208.013 181.142 208.608 181.042 209.188C180.942 209.769 180.725 210.324 180.404 210.818C180.084 211.312 179.667 211.736 179.177 212.065C178.688 212.393 178.138 212.618 177.559 212.728C176.981 212.837 176.386 212.827 175.811 212.7C175.236 212.572 174.693 212.329 174.215 211.985C173.737 211.641 173.333 211.204 173.029 210.7ZM178.125 207.276C177.929 206.972 177.647 206.733 177.314 206.591C176.982 206.448 176.614 206.408 176.259 206.476C175.903 206.544 175.576 206.717 175.32 206.972C175.063 207.227 174.888 207.553 174.818 207.908C174.748 208.264 174.785 208.632 174.925 208.966C175.065 209.299 175.302 209.584 175.605 209.782C175.907 209.981 176.262 210.084 176.624 210.079C176.986 210.074 177.338 209.961 177.635 209.754C178.022 209.486 178.289 209.077 178.381 208.615C178.472 208.152 178.381 207.672 178.125 207.276Z" fill="#2E2E3F"/>
<path d="M204.91 210.7C204.312 209.74 204.11 208.586 204.347 207.48C204.584 206.375 205.241 205.405 206.18 204.775C207.118 204.146 208.264 203.906 209.376 204.108C210.488 204.309 211.478 204.934 212.137 205.853C212.735 206.812 212.936 207.966 212.699 209.072C212.462 210.178 211.805 211.148 210.866 211.777C209.928 212.406 208.782 212.646 207.67 212.445C206.559 212.244 205.569 211.618 204.91 210.7ZM210.006 207.276C209.809 206.972 209.526 206.734 209.194 206.592C208.861 206.45 208.493 206.411 208.138 206.48C207.782 206.548 207.456 206.722 207.199 206.978C206.943 207.233 206.769 207.56 206.7 207.916C206.63 208.271 206.669 208.639 206.81 208.973C206.951 209.306 207.188 209.59 207.491 209.788C207.794 209.985 208.15 210.088 208.512 210.082C208.873 210.076 209.225 209.962 209.522 209.754C209.908 209.485 210.174 209.076 210.264 208.613C210.354 208.151 210.262 207.672 210.006 207.276Z" fill="#2E2E3F"/>
<path d="M141.075 122.199C141.231 122.703 141.455 123.184 141.741 123.629C142.317 124.315 143.047 124.855 143.872 125.204C147.116 126.876 152.086 128.67 154.822 131.081C155.16 131.344 155.438 131.677 155.639 132.056C156.032 132.911 155.639 133.874 155.276 134.765C155.111 135.252 154.821 135.686 154.434 136.025C153.732 136.534 152.758 136.316 151.928 136.067C148.721 135.115 145.567 133.99 142.48 132.699C140.756 132.005 139.082 131.195 137.468 130.275C136.851 130.005 136.317 129.574 135.922 129.027C135.527 128.481 135.286 127.838 135.222 127.167C134.637 124.06 134.245 120.919 134.048 117.764L133.443 110.342C133.328 108.912 128.988 103.925 130.295 102.938C132.85 101.017 136.578 106.246 137.165 107.318C138.806 110.336 140.434 120.369 141.075 122.199Z" fill="#B83280"/>
<path d="M141.075 122.199C141.231 122.703 141.455 123.184 141.741 123.629C142.317 124.315 143.047 124.855 143.872 125.204C147.116 126.876 152.086 128.67 154.822 131.081C155.16 131.344 155.438 131.677 155.639 132.056C156.032 132.911 155.639 133.874 155.276 134.765C155.111 135.252 154.821 135.686 154.434 136.025C153.732 136.534 152.758 136.316 151.928 136.067C148.721 135.115 145.567 133.99 142.48 132.699C140.756 132.005 139.082 131.195 137.468 130.275C136.851 130.005 136.317 129.574 135.922 129.027C135.527 128.481 135.286 127.838 135.222 127.167C134.637 124.06 134.245 120.919 134.048 117.764L133.443 110.342C133.328 108.912 128.988 103.925 130.295 102.938C132.85 101.017 136.578 106.246 137.165 107.318C138.806 110.336 140.434 120.369 141.075 122.199Z" fill="url(#paint6_linear)"/>
<path d="M139.06 169.985C139.109 170.585 138.96 171.185 138.636 171.693C138.292 172.043 137.855 172.287 137.377 172.396C134.956 173.159 114.376 173.935 110.532 173.22C109.037 167.694 108.983 161.854 109.733 156.177C110.03 153.965 110.466 151.711 111.634 149.815C111.929 149.294 112.344 148.852 112.845 148.524C113.585 148.17 114.405 148.017 115.223 148.082C121.155 148.021 127.19 147.882 133.086 148.724C134.901 148.985 135.888 149.56 136.53 151.36C137.454 154.198 138.099 157.12 138.455 160.085C138.918 163.363 139.12 166.674 139.06 169.985Z" fill="#2E2E3F"/>
<path d="M110.545 173.22L111.465 173.377C111.685 173.263 111.899 173.138 112.106 173.002C112.612 172.72 113.038 172.316 113.347 171.826C113.571 171.326 113.678 170.781 113.662 170.233C113.831 165.658 112.96 161.011 113.892 156.528C114.225 154.916 114.891 153.462 115.363 151.911C115.798 150.493 114.83 149.645 113.686 148.815C113.485 148.663 113.27 148.531 113.044 148.421L112.839 148.524C112.335 148.848 111.919 149.291 111.628 149.815C110.454 151.711 110.018 153.965 109.721 156.176C108.995 161.847 109.043 167.694 110.545 173.22Z" fill="url(#paint7_linear)"/>
<path d="M125.138 98.5635C125.166 99.4896 125.532 100.373 126.167 101.048C127.111 101.896 128.546 101.847 129.72 102.32C129.871 102.371 130.007 102.456 130.12 102.568C130.206 102.673 130.268 102.795 130.301 102.926C130.449 103.545 130.4 104.195 130.162 104.786C129.8 105.668 129.25 106.459 128.551 107.106C127.851 107.753 127.019 108.239 126.113 108.53C124.292 109.097 122.365 109.232 120.483 108.924C119.845 108.886 119.224 108.701 118.668 108.385C118.085 107.943 117.623 107.362 117.324 106.694C116.955 106.086 116.71 105.411 116.603 104.707C116.554 104.355 116.597 103.995 116.728 103.664C116.858 103.333 117.072 103.041 117.348 102.817C117.608 102.656 117.886 102.527 118.177 102.435C118.633 102.257 119.071 102.035 119.485 101.775C119.908 101.559 120.239 101.197 120.417 100.757C120.485 100.38 120.469 99.9931 120.368 99.6238C120.138 98.3762 120.138 97.0969 120.368 95.8492C120.423 95.4797 120.538 95.1216 120.707 94.7889C120.864 94.5038 121.084 94.2584 121.351 94.0715C121.617 93.8847 121.923 93.7615 122.244 93.7112C122.566 93.6609 122.894 93.6849 123.205 93.7814C123.516 93.8779 123.8 94.0443 124.036 94.2679C125.229 95.3706 124.975 97.1155 125.138 98.5635Z" fill="#F3BD8F"/>
<path d="M130.785 91.9109C130.858 92.761 130.786 93.6173 130.574 94.4435C129.968 96.4066 127.892 97.6729 125.84 97.7577C125.167 97.8107 124.492 97.6831 123.885 97.3881C123.539 97.1847 123.218 96.9406 122.929 96.661C121.494 95.3463 120.175 93.777 119.739 91.8806C119.588 91.1598 119.525 90.4233 119.551 89.6874C119.533 88.6063 119.718 87.5314 120.096 86.5186C120.481 85.6193 121.091 84.8351 121.869 84.2426C122.647 83.65 123.564 83.2694 124.533 83.1378C126.524 82.8833 128.382 83.8891 129.835 85.1372C130.561 85.7431 130.44 86.9973 130.543 87.9303C130.652 89.2572 130.743 90.5841 130.785 91.9109Z" fill="#F3BD8F"/>
<path d="M111.955 150.281C112.876 150.911 113.927 151.325 115.03 151.493C120.918 152.799 127.021 152.788 132.904 151.463C134.115 151.178 135.501 150.73 136.033 149.578C136.274 148.948 136.365 148.269 136.3 147.597C136.162 141.26 136.021 134.918 135.876 128.573C135.719 121.363 135.561 114.128 134.502 106.997C134.19 105.525 133.607 104.124 132.783 102.865C132.093 101.926 128.982 102.429 126.385 100.745C125.671 100.284 127.22 102.671 124.89 103.659C122.56 104.646 119.781 99.8721 118.304 101.799C117.475 102.877 114.854 102.078 114.025 103.15C113.359 104.01 112.948 105.834 112.687 108.027C112.13 112.693 112.27 119.024 112.149 121.326C111.713 129.385 112.391 139.666 109.727 146.325C109.158 147.767 110.75 149.33 111.955 150.281Z" fill="#B83280"/>
<path d="M111.955 150.281C112.876 150.911 113.927 151.326 115.03 151.493C116.5 151.819 117.987 152.064 119.485 152.226L119.908 152.172C118.813 148.597 118.758 144.804 118.789 141.066C118.813 139.006 118.847 136.942 118.891 134.874C118.891 133.571 118.964 132.202 119.636 131.087C120.308 129.972 121.833 129.27 122.953 129.942C121.028 128.779 119.454 123.883 118.668 121.866C117.533 118.954 116.739 115.92 116.301 112.826C115.998 110.705 116.113 106.967 112.863 107.979L112.687 108.039C112.13 112.705 112.27 119.036 112.149 121.339C111.713 129.397 112.391 139.679 109.727 146.337C109.158 147.767 110.75 149.33 111.955 150.281Z" fill="url(#paint8_linear)"/>
<path d="M133.733 207.731C133.547 207.748 133.374 207.834 133.249 207.973C133.175 208.123 133.145 208.292 133.164 208.458C133.164 209.476 132.511 210.415 132.559 211.427C132.559 212.342 133.164 213.19 133.073 214.099C133.073 214.28 133.025 214.486 133.152 214.614C133.237 214.684 133.34 214.728 133.449 214.741C136.023 215.23 138.608 215.66 141.203 216.031C141.682 216.156 142.19 216.1 142.631 215.874C142.832 215.715 142.989 215.506 143.085 215.268C143.787 213.832 143.164 212.081 142.213 210.803C139.865 207.701 137.613 206.949 133.733 207.731Z" fill="#2E2E3F"/>
<path d="M97.9302 207.573C98.1099 208.396 98.5753 209.128 99.2437 209.639C100.894 211.161 102.779 212.407 104.825 213.329C105.239 213.56 105.714 213.662 106.186 213.62C106.541 213.512 106.851 213.292 107.069 212.993C107.287 212.693 107.402 212.331 107.397 211.96C107.37 211.215 107.175 210.486 106.828 209.827C105.841 207.537 105.151 204.174 102.512 203.272C100.224 202.496 97.6821 205.295 97.9302 207.573Z" fill="#2E2E3F"/>
<path d="M133.685 207.731C133.499 207.748 133.326 207.834 133.201 207.973C133.126 208.123 133.097 208.292 133.116 208.458C133.116 209.476 132.462 210.415 132.511 211.427C132.541 212.342 133.116 213.19 133.025 214.099C133.025 214.28 132.977 214.486 133.104 214.614C133.188 214.684 133.291 214.728 133.4 214.741C135.975 215.23 138.559 215.66 141.154 216.031C141.633 216.156 142.142 216.1 142.583 215.874C142.784 215.715 142.94 215.506 143.037 215.268C143.739 213.832 143.115 212.081 142.165 210.803C139.816 207.701 137.565 206.949 133.685 207.731Z" fill="url(#paint9_linear)"/>
<path d="M99.2437 209.639C100.894 211.16 102.779 212.406 104.824 213.329C105.239 213.56 105.714 213.661 106.186 213.62" fill="url(#paint10_linear)"/>
<path d="M116.979 121.648C116.892 122.291 116.96 122.945 117.179 123.556C117.548 124.404 118.389 124.913 119.212 125.374L137.371 135.674C138.225 136.158 139.132 136.704 139.496 137.619C140.295 139.648 137.789 141.508 135.616 141.672C133.334 141.842 131.082 141.151 128.921 140.406C122.091 138.046 115.493 135.058 109.213 131.481C108.436 131.193 107.784 130.641 107.371 129.921C106.959 129.202 106.811 128.36 106.955 127.543C106.938 122.52 107.323 117.503 108.105 112.541C108.535 109.827 109.146 106.997 110.962 104.931C113.662 101.866 118.607 101.769 119.031 106.276C119.539 111.354 117.324 116.588 116.979 121.648Z" fill="#B83280"/>
<path d="M116.979 121.648C116.892 122.291 116.96 122.945 117.179 123.556C117.548 124.404 118.389 124.913 119.212 125.374L137.371 135.674C138.225 136.158 139.132 136.704 139.496 137.619C140.295 139.648 137.789 141.508 135.616 141.672C133.334 141.842 131.082 141.151 128.921 140.406C122.091 138.046 115.493 135.058 109.213 131.481C108.436 131.193 107.784 130.641 107.371 129.921C106.959 129.202 106.811 128.36 106.955 127.543C106.938 122.52 107.323 117.503 108.105 112.541C108.535 109.827 109.146 106.997 110.962 104.931C113.662 101.866 118.607 101.769 119.031 106.276C119.539 111.354 117.324 116.588 116.979 121.648Z" fill="url(#paint11_linear)"/>
<path d="M141.874 137.358C143.185 137.357 144.448 137.853 145.409 138.745C145.876 139.2 146.191 139.789 146.31 140.43C146.429 141.071 146.347 141.734 146.075 142.326C145.879 142.724 145.54 143.031 145.125 143.186C144.76 143.287 144.374 143.274 144.017 143.15C142.976 142.841 142.147 142.041 141.142 141.635C140.899 141.513 140.62 141.481 140.355 141.545C140.187 141.63 140.027 141.732 139.877 141.847C139.667 141.966 139.431 142.032 139.19 142.04C138.949 142.048 138.709 141.999 138.491 141.896C138.057 141.684 137.692 141.355 137.438 140.945C137.069 140.43 136.891 139.802 136.935 139.169C137.038 138.194 137.601 137.885 138.442 137.782C139.574 137.552 140.721 137.411 141.874 137.358Z" fill="#F3BD8F"/>
<path d="M158.762 134.195C159.249 134.796 159.582 135.508 159.731 136.267C159.813 136.624 159.8 136.996 159.694 137.346C159.546 137.686 159.298 137.975 158.984 138.174C158.67 138.372 158.304 138.472 157.933 138.461C157.191 138.427 156.47 138.203 155.838 137.812C154.669 137.133 153.55 136.37 152.491 135.528C152.265 135.378 152.061 135.196 151.886 134.989C151.691 134.667 151.611 134.288 151.66 133.915C151.708 133.542 151.882 133.196 152.152 132.935C153.908 131.178 157.461 132.577 158.762 134.195Z" fill="#F3BD8F"/>
<path d="M162.194 147.743H235.156L218.395 193.468H175.196L162.194 147.743ZM231.488 150.306H165.584L177.127 190.899H216.604L231.488 150.306Z" fill="#B83280"/>
<path d="M143.902 147.743H218.111L201.344 193.468H158.145L143.902 147.743ZM214.449 150.306H148.539L160.082 190.899H199.589L214.449 150.306Z" fill="#B83280"/>
<path d="M157.933 206.252H208.021V203.69H160.499V192.184H157.933V206.252Z" fill="#B83280"/>
<path d="M174.699 206.252H215.478V203.69H177.26V192.184H174.699V206.252Z" fill="#B83280"/>
<path d="M161.843 208.27C161.843 207.408 162.098 206.566 162.577 205.849C163.055 205.133 163.735 204.574 164.531 204.245C165.327 203.915 166.202 203.829 167.046 203.998C167.891 204.167 168.666 204.582 169.275 205.192C169.883 205.802 170.297 206.579 170.464 207.424C170.631 208.269 170.544 209.145 170.214 209.941C169.884 210.737 169.325 211.417 168.609 211.895C167.892 212.373 167.05 212.628 166.189 212.626C165.036 212.623 163.932 212.163 163.117 211.347C162.303 210.53 161.845 209.424 161.843 208.27ZM164.403 208.27C164.397 208.632 164.5 208.988 164.697 209.291C164.894 209.595 165.177 209.832 165.51 209.974C165.843 210.115 166.211 210.153 166.566 210.084C166.921 210.015 167.247 209.841 167.503 209.585C167.759 209.329 167.932 209.003 168.001 208.647C168.071 208.292 168.032 207.924 167.891 207.591C167.75 207.257 167.512 206.974 167.209 206.776C166.906 206.579 166.551 206.477 166.189 206.483C165.718 206.491 165.268 206.681 164.935 207.015C164.602 207.348 164.411 207.798 164.403 208.27Z" fill="#2E2E3F"/>
<path d="M193.663 210.7C193.085 209.741 192.897 208.597 193.139 207.503C193.381 206.41 194.035 205.452 194.964 204.829C195.893 204.205 197.027 203.963 198.129 204.154C199.231 204.345 200.218 204.953 200.884 205.853C201.235 206.326 201.486 206.866 201.622 207.439C201.758 208.013 201.777 208.608 201.677 209.188C201.576 209.769 201.359 210.324 201.039 210.818C200.718 211.312 200.301 211.736 199.812 212.065C199.323 212.393 198.772 212.618 198.194 212.728C197.615 212.837 197.02 212.827 196.446 212.7C195.871 212.572 195.328 212.329 194.85 211.985C194.371 211.641 193.968 211.204 193.663 210.7ZM198.76 207.276C198.564 206.972 198.281 206.733 197.949 206.591C197.616 206.448 197.249 206.408 196.893 206.476C196.538 206.544 196.211 206.717 195.954 206.972C195.697 207.227 195.523 207.553 195.452 207.908C195.382 208.264 195.419 208.632 195.56 208.966C195.7 209.299 195.936 209.584 196.239 209.782C196.542 209.981 196.897 210.084 197.259 210.079C197.62 210.074 197.972 209.961 198.269 209.754C198.656 209.486 198.923 209.077 199.015 208.615C199.106 208.152 199.015 207.672 198.76 207.276Z" fill="#2E2E3F"/>
<path d="M229.424 156.904H148.418V158.836H229.424V156.904Z" fill="#B83280"/>
<path d="M227.687 163.405H150.53V165.337H227.687V163.405Z" fill="#B83280"/>
<path d="M225.187 169.906H152.649V171.839H225.187V169.906Z" fill="#B83280"/>
<path d="M222.687 176.407H154.767V178.339H222.687V176.407Z" fill="#B83280"/>
<path d="M220.181 182.902H156.88V184.835H220.181V182.902Z" fill="#B83280"/>
<path d="M224.264 148.466L208.683 191.224L210.497 191.886L226.078 149.128L224.264 148.466Z" fill="#B83280"/>
<path d="M201.744 148.543L189.334 190.721L191.186 191.267L203.596 149.089L201.744 148.543Z" fill="#B83280"/>
<path d="M182.798 148.2L181.356 191.247L183.286 191.312L184.728 148.264L182.798 148.2Z" fill="#B83280"/>
<path d="M160.599 149.397L158.753 149.966L171.734 192.148L173.579 191.579L160.599 149.397Z" fill="#B83280"/>
<path d="M126.772 85.3976C128.395 86.367 130.404 86.167 132.305 85.9307C132.12 84.8057 131.553 83.7787 130.701 83.0225C130.098 82.4401 129.392 81.9757 128.619 81.6532C127.559 81.2231 124.745 80.6717 124.049 81.9986C123.48 83.0831 125.955 84.9129 126.772 85.3976Z" fill="#3E3E54"/>
<path d="M92.1739 205.556H81.5873C79.7821 205.556 78.3187 207.02 78.3187 208.827V208.833C78.3187 210.64 79.7821 212.105 81.5873 212.105H92.1739C93.9791 212.105 95.4425 210.64 95.4425 208.833V208.827C95.4425 207.02 93.9791 205.556 92.1739 205.556Z" fill="url(#paint12_linear)"/>
</g>
<circle cx="12.5" cy="12.5" r="12.5" fill="#B83280"/>
<path d="M13.7412 19H11.6143V8.72559L8.47656 9.79785V7.99609L13.4688 6.15918H13.7412V19Z" fill="white"/>
<defs>
<linearGradient id="paint0_linear" x1="125.38" y1="126.264" x2="124.804" y2="271.869" gradientUnits="userSpaceOnUse">
<stop offset="0.01"/>
<stop offset="0.13" stop-opacity="0.69"/>
<stop offset="1" stop-opacity="0"/>
</linearGradient>
<linearGradient id="paint1_linear" x1="-1963.33" y1="54136.9" x2="25256.3" y2="47868.2" gradientUnits="userSpaceOnUse">
<stop offset="0.01"/>
<stop offset="0.13" stop-opacity="0.69"/>
<stop offset="1" stop-opacity="0"/>
</linearGradient>
<linearGradient id="paint2_linear" x1="4459.76" y1="4049.66" x2="3787.74" y2="6149.88" gradientUnits="userSpaceOnUse">
<stop offset="0.01"/>
<stop offset="0.13" stop-opacity="0.69"/>
<stop offset="1" stop-opacity="0"/>
</linearGradient>
<linearGradient id="paint3_linear" x1="9748.07" y1="19830.9" x2="12240.7" y2="11994.4" gradientUnits="userSpaceOnUse">
<stop offset="0.01"/>
<stop offset="0.13" stop-opacity="0.69"/>
<stop offset="1" stop-opacity="0"/>
</linearGradient>
<linearGradient id="paint4_linear" x1="8269.15" y1="16283.6" x2="5017" y2="16125.6" gradientUnits="userSpaceOnUse">
<stop offset="0.01"/>
<stop offset="0.13" stop-opacity="0.69"/>
<stop offset="1" stop-opacity="0"/>
</linearGradient>
<linearGradient id="paint5_linear" x1="10169.5" y1="15387.9" x2="7570.7" y2="12332.2" gradientUnits="userSpaceOnUse">
<stop offset="0.01"/>
<stop offset="0.13" stop-opacity="0.69"/>
<stop offset="1" stop-opacity="0"/>
</linearGradient>
<linearGradient id="paint6_linear" x1="-180675" y1="7425.03" x2="-180408" y2="7078.34" gradientUnits="userSpaceOnUse">
<stop offset="0.01"/>
<stop offset="0.13" stop-opacity="0.69"/>
<stop offset="1" stop-opacity="0"/>
</linearGradient>
<linearGradient id="paint7_linear" x1="-40413.2" y1="6795.25" x2="-40476.7" y2="6795.25" gradientUnits="userSpaceOnUse">
<stop offset="0.01"/>
<stop offset="0.13" stop-opacity="0.69"/>
<stop offset="1" stop-opacity="0"/>
</linearGradient>
<linearGradient id="paint8_linear" x1="-92518.9" y1="9786.42" x2="-91232.8" y2="9764.63" gradientUnits="userSpaceOnUse">
<stop offset="0.01"/>
<stop offset="0.13" stop-opacity="0.69"/>
<stop offset="1" stop-opacity="0"/>
</linearGradient>
<linearGradient id="paint9_linear" x1="-73325.2" y1="3238.19" x2="-73518.9" y2="3238.19" gradientUnits="userSpaceOnUse">
<stop offset="0.01"/>
<stop offset="0.13" stop-opacity="0.69"/>
<stop offset="1" stop-opacity="0"/>
</linearGradient>
<linearGradient id="paint10_linear" x1="-45840.1" y1="1606.4" x2="-45919.8" y2="1606.4" gradientUnits="userSpaceOnUse">
<stop offset="0.01"/>
<stop offset="0.13" stop-opacity="0.69"/>
<stop offset="1" stop-opacity="0"/>
</linearGradient>
<linearGradient id="paint11_linear" x1="-232004" y1="9194.08" x2="-231364" y2="8152.37" gradientUnits="userSpaceOnUse">
<stop offset="0.01"/>
<stop offset="0.13" stop-opacity="0.69"/>
<stop offset="1" stop-opacity="0"/>
</linearGradient>
<linearGradient id="paint12_linear" x1="2538.82" y1="2217.52" x2="2537.95" y2="2782.95" gradientUnits="userSpaceOnUse">
<stop offset="0.01"/>
<stop offset="0.13" stop-opacity="0.69"/>
<stop offset="1" stop-opacity="0"/>
</linearGradient>
<clipPath id="clip0">
<rect width="253" height="243" fill="white" transform="translate(0 0.392822)"/>
</clipPath>
</defs>
</svg>
