<svg width="253" height="244" viewBox="0 0 253 244" fill="none" xmlns="http://www.w3.org/2000/svg">
<g clip-path="url(#clip0)">
<path opacity="0.24" d="M233.546 207.619C230.59 209.878 227.363 211.723 223.946 213.107C218.032 215.497 211.733 216.566 205.664 218.408C202.97 219.217 200.326 220.198 197.732 221.267C182.023 227.71 167.607 237.931 151.082 241.661C120.461 248.626 90.8663 232.792 61.5973 226.077C36.5197 220.338 16.1391 234.06 6.01385 192.541C1.7825 175.257 -3.45537 156.955 2.94925 140.37C9.35387 123.784 18.3724 108.467 24.4816 91.7978C33.2047 67.9919 36.4345 40.5652 53.6003 22.399C65.4882 9.82044 82.4787 3.74766 99.309 1.59297C116.139 -0.561719 133.18 0.82083 150.125 0.893871C170.536 0.961694 192.279 -0.530416 209.93 10.1752C216.155 14.01 221.521 19.1882 225.667 25.3621C229.813 31.536 232.642 38.5627 233.966 45.9702C237.471 66.4163 229.149 87.6136 232.89 108.023C236.36 127.024 249.915 142.926 252.564 162.083C254.968 179.331 246.986 197.425 233.546 207.619Z" fill="#B83280"/>
<path d="M200.296 36.2086V204.264C200.297 206.378 199.899 208.472 199.123 210.426C198.348 212.38 197.211 214.156 195.777 215.652C194.343 217.148 192.64 218.335 190.766 219.145C188.891 219.955 186.882 220.373 184.853 220.375H82.9796C80.9501 220.374 78.9406 219.957 77.0659 219.146C75.1913 218.336 73.4882 217.149 72.054 215.653C70.6199 214.157 69.4827 212.381 68.7076 210.427C67.9324 208.473 67.5345 206.379 67.5364 204.264V36.2086C67.5364 31.9414 69.1635 27.8489 72.0596 24.8315C74.9558 21.8141 78.8838 20.1189 82.9796 20.1189H184.853C188.948 20.1217 192.874 21.8177 195.77 24.8345C198.665 27.8513 200.293 31.9422 200.296 36.2086Z" fill="#B83280"/>
<path d="M92.5891 132.831C89.5245 140.656 82.8695 145.952 77.1108 151.55C74.1464 154.43 71.8579 157.644 69.214 160.763C68.7339 161.303 68.1702 161.754 67.5464 162.099V130.128C68.3656 127.415 68.8913 124.615 69.1138 121.781C70.1153 125.219 69.6646 129.413 72.2085 131.855C73.8459 133.452 76.2545 133.733 78.4929 133.838C83.2128 134.038 87.9395 133.7 92.5891 132.831Z" fill="url(#paint0_linear)"/>
<path d="M186.57 34.4504H78.7633V202.767H186.57V34.4504Z" fill="url(#paint1_linear)"/>
<path d="M188.138 33.1201V200.951H93.8359C93.8359 200.951 80.7663 198.087 80.0753 175.137C79.3842 152.186 80.7663 33.1201 80.7663 33.1201H188.138Z" fill="white"/>
<path d="M182.214 123.925C182.85 126.226 182.915 128.782 184.217 130.749C185.994 133.399 189.49 134.104 192.594 133.931C193.003 133.927 193.409 133.848 193.791 133.697C194.219 133.464 194.584 133.123 194.853 132.705C196.761 130.034 196.725 126.309 195.784 123.127C194.479 118.768 191.716 115.041 187.997 112.625C185.964 111.31 177.161 107.46 176.215 111.059C175.418 114.158 181.347 120.795 182.214 123.925Z" fill="#F5C7C8"/>
<path d="M182.214 123.925C182.85 126.226 182.915 128.782 184.217 130.749C185.994 133.399 189.49 134.104 192.594 133.931C193.003 133.927 193.409 133.848 193.791 133.697C194.219 133.464 194.584 133.123 194.853 132.705C196.761 130.034 196.725 126.309 195.784 123.127C194.479 118.768 191.716 115.041 187.997 112.625C185.964 111.31 177.161 107.46 176.215 111.059C175.418 114.158 181.347 120.795 182.214 123.925Z" fill="url(#paint2_linear)"/>
<path d="M185.784 219.034C185.444 202.6 185.048 185.811 179.645 170.363C176.575 161.582 171.943 153.418 169.439 144.444C167.467 137.375 167.937 129.867 167.997 122.501C168.027 118.598 168.052 114.612 166.891 110.903C165.889 107.663 163.971 104.694 163.556 101.314C167.932 104.637 172.569 108.331 174.157 113.725C174.928 116.334 174.898 119.141 175.313 121.843C176.655 130.587 182.504 137.709 186.67 145.425C195.824 162.391 196.966 182.686 196.876 202.146C196.876 206.361 196.756 210.739 194.978 214.531C193.2 218.324 189.77 219.796 185.784 219.034Z" fill="url(#paint3_linear)"/>
<path d="M90.2806 136.196C82.6191 145.112 70.7513 149.479 63.891 159.078C57.7618 167.624 56.615 178.836 53.5154 189.014C50.0802 200.299 44.1513 210.546 38.2575 220.672C37.4813 222.002 36.62 223.406 35.2229 223.985C34.0111 224.507 32.649 224.251 31.3821 223.985C21.8328 221.898 11.3771 216.65 9.23387 206.721C7.86681 200.367 10.3706 193.809 13.33 188.07C23.6004 168.083 39.7898 151.518 47.6516 130.373C52.7893 116.563 55.4333 100.907 68.0522 92.1523C68.0423 92.2407 68.0423 92.33 68.0522 92.4184C67.4313 97.8912 68.553 109.703 67.7167 118.108C67.6919 118.413 67.7088 118.72 67.7668 119.021C68.1223 120.706 69.5194 122.829 70.1604 124.107C72.1133 127.916 77.5014 127.076 81.4273 125.673C85.3532 124.269 90.7062 123.335 92.7293 127.128C94.2566 130.055 92.4238 133.686 90.2806 136.196Z" fill="#F5C7C8"/>
<path d="M101.838 200.79C101.773 200.84 101.712 200.894 101.653 200.951H93.8359C93.8359 200.951 80.7663 198.087 80.0753 175.137C80.0753 175.137 84.7773 190.58 100.892 187.277C100.892 187.277 92.3537 201.776 101.838 200.79Z" fill="white"/>
<path d="M101.838 200.79C101.773 200.84 101.712 200.894 101.653 200.951H93.8359C93.8359 200.951 80.7663 198.087 80.0753 175.137C80.0753 175.137 84.7773 190.58 100.892 187.277C100.892 187.277 92.3537 201.776 101.838 200.79Z" fill="url(#paint4_linear)"/>
<path d="M174.712 68.5393H97.887C97.1016 68.5393 96.4649 69.2027 96.4649 70.021C96.4649 70.8393 97.1016 71.5027 97.887 71.5027H174.712C175.498 71.5027 176.135 70.8393 176.135 70.021C176.135 69.2027 175.498 68.5393 174.712 68.5393Z" fill="#1A202C"/>
<path d="M174.712 77.4348H97.887C97.1016 77.4348 96.4649 78.0982 96.4649 78.9165C96.4649 79.7348 97.1016 80.3982 97.887 80.3982H174.712C175.498 80.3982 176.135 79.7348 176.135 78.9165C176.135 78.0982 175.498 77.4348 174.712 77.4348Z" fill="#1A202C"/>
<path d="M174.712 86.3247H97.887C97.1016 86.3247 96.4649 86.9881 96.4649 87.8064C96.4649 88.6247 97.1016 89.288 97.887 89.288H174.712C175.498 89.288 176.135 88.6247 176.135 87.8064C176.135 86.9881 175.498 86.3247 174.712 86.3247Z" fill="#1A202C"/>
<path d="M174.712 95.22H97.887C97.1016 95.22 96.4649 95.8833 96.4649 96.7017C96.4649 97.52 97.1016 98.1833 97.887 98.1833H174.712C175.498 98.1833 176.135 97.52 176.135 96.7017C176.135 95.8833 175.498 95.22 174.712 95.22Z" fill="#1A202C"/>
<path d="M174.712 104.115H97.887C97.1016 104.115 96.4649 104.779 96.4649 105.597C96.4649 106.415 97.1016 107.079 97.887 107.079H174.712C175.498 107.079 176.135 106.415 176.135 105.597C176.135 104.779 175.498 104.115 174.712 104.115Z" fill="#1A202C"/>
<path d="M157.752 26.3483V31.1898C157.753 32.5913 157.489 33.9793 156.975 35.2744C156.461 36.5694 155.707 37.7461 154.756 38.7371C153.804 39.7281 152.675 40.5139 151.432 41.0496C150.189 41.5853 148.857 41.8603 147.512 41.8589H120.11C118.765 41.8603 117.432 41.5854 116.188 41.0499C114.944 40.5144 113.813 39.7288 112.861 38.738C111.909 37.7473 111.153 36.5707 110.637 35.2755C110.121 33.9804 109.856 32.592 109.855 31.1898V26.3483C109.858 23.5168 110.939 20.8023 112.863 18.8016C114.786 16.8009 117.393 15.6778 120.11 15.6792H147.512C148.857 15.6785 150.188 15.954 151.431 16.4899C152.674 17.0259 153.803 17.8117 154.754 18.8026C155.705 19.7934 156.459 20.9699 156.974 22.2646C157.488 23.5594 157.753 24.947 157.752 26.3483Z" fill="#B83280"/>
<path d="M109.93 26.2231V31.0698C109.926 32.4733 110.188 33.8638 110.701 35.1615C111.214 36.4593 111.968 37.6388 112.919 38.6324C113.87 39.626 115.001 40.4142 116.245 40.9518C117.489 41.4893 118.823 41.7657 120.17 41.765H122.229C120.882 41.7657 119.548 41.4893 118.303 40.9518C117.059 40.4142 115.929 39.626 114.977 38.6324C114.026 37.6388 113.272 36.4593 112.759 35.1615C112.246 33.8638 111.984 32.4733 111.988 31.0698V26.2231C111.988 24.8218 112.252 23.4341 112.766 22.1394C113.281 20.8446 114.035 19.6682 114.986 18.6773C115.937 17.6865 117.066 16.9006 118.309 16.3647C119.552 15.8288 120.884 15.5533 122.229 15.554H120.17C118.826 15.5533 117.494 15.8288 116.251 16.3647C115.008 16.9006 113.879 17.6865 112.928 18.6773C111.977 19.6682 111.223 20.8446 110.708 22.1394C110.194 23.4341 109.929 24.8218 109.93 26.2231Z" fill="url(#paint5_linear)"/>
<path d="M157.752 26.3483V31.1898C157.753 32.5913 157.489 33.9793 156.975 35.2744C156.461 36.5694 155.707 37.7461 154.756 38.7371C153.804 39.7281 152.675 40.5139 151.432 41.0496C150.189 41.5853 148.857 41.8603 147.512 41.8589H122.163C120.818 41.8603 119.485 41.5854 118.241 41.0499C116.997 40.5144 115.867 39.7288 114.914 38.738C113.962 37.7473 113.206 36.5707 112.69 35.2755C112.175 33.9804 111.909 32.592 111.908 31.1898V26.3483C111.911 23.5168 112.993 20.8023 114.916 18.8016C116.839 16.8009 119.446 15.6778 122.163 15.6792H147.512C148.857 15.6785 150.188 15.954 151.431 16.4899C152.674 17.0259 153.803 17.8117 154.754 18.8026C155.705 19.7934 156.459 20.9699 156.974 22.2646C157.488 23.5594 157.753 24.947 157.752 26.3483Z" fill="url(#paint6_linear)"/>
<path d="M67.6967 118.108C67.6719 118.413 67.6888 118.72 67.7467 119.021C66.7853 118.353 65.6937 116.177 64.7422 113.564C64.1564 111.962 62.6741 104.225 62.6741 102.508C62.6741 98.5591 65.283 95.2566 68.0272 92.4185C67.4112 97.8913 68.5229 109.703 67.6967 118.108Z" fill="url(#paint7_linear)"/>
<path d="M233.546 207.619C230.59 209.878 227.363 211.723 223.946 213.107C218.032 215.497 211.733 216.566 205.664 218.408C202.97 219.217 200.326 220.197 197.732 221.267C194.617 196.543 188.503 171.959 176.846 150.313C173.816 144.663 171.508 139.957 169.52 133.817C167.532 127.676 168.518 111.091 170.461 110.778C173.766 110.214 175.904 114.232 176.971 117.534C178.758 122.918 180.376 127.848 185.223 131.099C187.296 132.502 190.161 133.363 192.129 131.798C193.104 130.922 193.754 129.719 193.966 128.396C194.843 124.165 193.055 119.657 190.075 116.637C187.096 113.616 183.1 111.941 179.059 111.007C176.735 110.486 174.222 110.131 172.454 108.477C171.042 107.147 170.336 104.778 171.377 103.129C172.304 101.653 177.812 105.008 179.465 104.757C183.115 104.235 183.3 103.479 186.976 103.515C190.651 103.552 194.437 103.902 197.857 105.373C201.362 106.938 204.342 109.583 207.121 112.338C211.433 116.621 215.303 117.92 219.044 122.772C221.403 125.845 223.676 129.069 224.938 132.794C227.196 139.462 225.899 146.797 225.243 153.851C223.603 171.798 226.295 189.889 233.075 206.476C233.205 206.847 233.396 207.233 233.546 207.619Z" fill="#F5C7C8"/>
<path d="M194.903 141.778C197.907 147.032 201.673 151.748 205.419 156.438C206.47 157.753 208.178 159.193 209.55 158.249C210.596 157.524 210.551 155.922 210.291 154.644C209.174 149.197 206.285 144.282 202.725 140.114C199.164 135.945 194.968 132.455 190.787 128.98C190.932 129.1 189.309 131.448 189.99 132.706C191.142 134.782 193.696 139.66 194.903 141.778Z" fill="url(#paint8_linear)"/>
<path d="M164.162 103.369C164.162 103.369 193.681 136.352 199.715 142.9C205.749 149.447 210.732 154.263 210.732 154.263C210.732 154.263 216.66 154.878 216.896 152.781C217.131 150.684 171.963 104.976 167.457 102.754L162.95 100.531L164.162 103.369Z" fill="#B83280"/>
<path d="M216.921 152.781C216.806 153.825 215.273 154.2 213.771 154.305C212.77 154.366 211.765 154.348 210.767 154.252C210.767 154.252 205.784 149.447 199.75 142.9C193.716 136.352 164.197 103.364 164.197 103.364L163.015 100.521L167.522 102.754C171.988 104.981 217.181 150.673 216.921 152.781Z" fill="url(#paint9_linear)"/>
<path d="M214.312 154.007L213.771 154.305C212.77 154.366 211.765 154.348 210.767 154.252C210.767 154.252 205.784 149.447 199.75 142.9C193.716 136.352 164.197 103.364 164.197 103.364L163.015 100.521L214.312 154.007Z" fill="#B83280"/>
<path d="M207.271 148.811C206.926 149.505 206.415 150.423 205.699 150.193C205.511 150.122 205.341 150.01 205.198 149.865L194.026 139.848C193.811 141.648 195.373 143.067 196.725 144.209C199.212 146.294 201.513 148.607 203.601 151.122C204.187 151.826 204.803 152.583 205.659 152.875C206.515 153.167 207.662 152.739 207.797 151.831C207.801 151.639 207.84 151.45 207.912 151.273C208.013 151.132 208.15 151.023 208.308 150.96L210.121 150.037C210.826 149.728 211.473 149.291 212.033 148.748C212.31 148.473 212.513 148.128 212.624 147.747C212.735 147.366 212.749 146.961 212.664 146.573C211.793 143.562 207.877 147.579 207.271 148.811Z" fill="white"/>
<path d="M213.766 154.978C214.597 155.791 215.579 156.574 216.72 156.626C216.925 156.649 217.132 156.623 217.326 156.55C217.52 156.477 217.694 156.358 217.837 156.204C217.95 156.03 218.018 155.828 218.033 155.619C218.049 155.409 218.013 155.199 217.927 155.009C217.752 154.628 217.513 154.284 217.221 153.991L216.065 152.677C215.689 152.15 215.163 151.759 214.562 151.56C213.886 151.435 212.329 151.972 212.189 152.797C212.048 153.621 213.315 154.503 213.766 154.978Z" fill="white"/>
</g>
<circle cx="12.5" cy="12.5" r="12.5" fill="#B83280"/>
<path d="M16.5625 19H7.95801V17.5322L12.2207 12.8828C12.8359 12.1973 13.2725 11.626 13.5303 11.1689C13.7939 10.7061 13.9258 10.2432 13.9258 9.78027C13.9258 9.1709 13.7529 8.67871 13.4072 8.30371C13.0674 7.92871 12.6074 7.74121 12.0273 7.74121C11.3359 7.74121 10.7998 7.95215 10.4189 8.37402C10.0381 8.7959 9.84766 9.37305 9.84766 10.1055H7.71191C7.71191 9.32617 7.8877 8.62598 8.23926 8.00488C8.59668 7.37793 9.10352 6.8916 9.75977 6.5459C10.4219 6.2002 11.1836 6.02734 12.0449 6.02734C13.2871 6.02734 14.2656 6.34082 14.9805 6.96777C15.7012 7.58887 16.0615 8.4502 16.0615 9.55176C16.0615 10.1904 15.8799 10.8613 15.5166 11.5645C15.1592 12.2617 14.5703 13.0557 13.75 13.9463L10.6211 17.2949H16.5625V19Z" fill="white"/>
<defs>
<linearGradient id="paint0_linear" x1="67.5464" y1="141.945" x2="92.5891" y2="141.945" gradientUnits="userSpaceOnUse">
<stop stop-color="#010101" stop-opacity="0"/>
<stop offset="0.95" stop-color="#010101"/>
</linearGradient>
<linearGradient id="paint1_linear" x1="91.4774" y1="268.566" x2="184.563" y2="-43.6494" gradientUnits="userSpaceOnUse">
<stop stop-color="#010101" stop-opacity="0"/>
<stop offset="0.47" stop-color="#010101" stop-opacity="0.47"/>
<stop offset="0.95" stop-color="#010101"/>
</linearGradient>
<linearGradient id="paint2_linear" x1="7893.07" y1="6161.37" x2="10925.6" y2="4183.88" gradientUnits="userSpaceOnUse">
<stop stop-color="#010101" stop-opacity="0"/>
<stop offset="0.47" stop-color="#010101" stop-opacity="0.47"/>
<stop offset="0.95" stop-color="#010101"/>
</linearGradient>
<linearGradient id="paint3_linear" x1="12014.1" y1="38216" x2="22180.9" y2="36661.1" gradientUnits="userSpaceOnUse">
<stop stop-color="#010101" stop-opacity="0"/>
<stop offset="0.47" stop-color="#010101" stop-opacity="0.47"/>
<stop offset="0.95" stop-color="#010101"/>
</linearGradient>
<linearGradient id="paint4_linear" x1="4865.26" y1="9088.64" x2="2317.79" y2="11741.6" gradientUnits="userSpaceOnUse">
<stop stop-color="#010101" stop-opacity="0"/>
<stop offset="0.95" stop-color="#010101"/>
</linearGradient>
<linearGradient id="paint5_linear" x1="2803.92" y1="1507.22" x2="4040.42" y2="1559.49" gradientUnits="userSpaceOnUse">
<stop stop-color="#010101" stop-opacity="0"/>
<stop offset="0.47" stop-color="#010101" stop-opacity="0.47"/>
<stop offset="0.95" stop-color="#010101"/>
</linearGradient>
<linearGradient id="paint6_linear" x1="136.46" y1="1.62937" x2="133.384" y2="48.8134" gradientUnits="userSpaceOnUse">
<stop stop-color="white" stop-opacity="0"/>
<stop offset="0.95" stop-color="white"/>
</linearGradient>
<linearGradient id="paint7_linear" x1="762.745" y1="5337.6" x2="2225.7" y2="5466.39" gradientUnits="userSpaceOnUse">
<stop stop-color="#010101" stop-opacity="0"/>
<stop offset="0.95" stop-color="#010101"/>
</linearGradient>
<linearGradient id="paint8_linear" x1="9180.23" y1="8369.86" x2="6663.07" y2="8688.97" gradientUnits="userSpaceOnUse">
<stop stop-color="#010101" stop-opacity="0"/>
<stop offset="0.47" stop-color="#010101" stop-opacity="0.47"/>
<stop offset="0.95" stop-color="#010101"/>
</linearGradient>
<linearGradient id="paint9_linear" x1="22241.7" y1="12952.1" x2="21257.6" y2="14073.6" gradientUnits="userSpaceOnUse">
<stop stop-color="white" stop-opacity="0"/>
<stop offset="0.95" stop-color="white"/>
</linearGradient>
<clipPath id="clip0">
<rect width="253" height="243" fill="white" transform="translate(0 0.392822)"/>
</clipPath>
</defs>
</svg>
