<svg width="226" height="243" viewBox="0 0 226 243" fill="none" xmlns="http://www.w3.org/2000/svg">
<g clip-path="url(#clip0)">
<path opacity="0.18" d="M56.9459 237.887C73.7519 243.984 92.4364 243.287 110.508 242.492C133.019 241.508 157.394 239.827 174.161 226.014C189.337 213.514 194.577 194.072 200.926 176.262C212.625 143.37 230.851 110.172 224.82 76.0247C220.938 54.2737 206.966 34.462 187.932 21.1379C168.898 7.81387 144.974 0.823979 121.057 0.0636013C110.888 -0.257292 100.339 0.593773 91.3962 5.06535C85.1241 8.20453 80.0008 12.9482 75.0948 17.7476C55.097 37.4558 37.6996 59.174 23.2485 82.4704C12.1868 100.273 2.70867 119.443 0.379891 139.82C-3.40049 172.669 21.269 224.989 56.9459 237.887Z" fill="#B83280"/>
<path d="M137.444 60.5722C137.444 55.8216 139.129 51.064 138.174 46.3971C137.149 41.3535 133.128 36.6308 134.347 31.6011C135.123 28.4759 137.77 26.0204 140.324 23.816L145.238 19.5048C145.769 18.9726 146.406 18.5348 147.117 18.2143C147.889 17.9711 148.705 17.8622 149.523 17.8934C154.626 17.8097 159.726 17.8562 164.823 18.0329C169.046 18.1724 173.804 18.6468 176.413 21.6325C178.741 24.3392 178.501 28.1759 177.678 31.5314C176.855 34.8868 175.59 38.305 176.335 41.6744C177.282 45.9506 181.404 49.913 179.968 54.0776C179.347 55.8983 177.732 57.3214 176.971 59.1003C176.343 60.5652 176.257 62.3022 175.015 63.4044C174.121 64.0664 173.051 64.5086 171.91 64.688C163.76 66.6273 155.609 69.0689 147.427 70.8129C140.697 72.2569 137.421 65.9716 137.444 60.5722Z" fill="url(#paint0_linear)"/>
<path d="M110.741 229.795C142.097 229.795 167.517 225.653 167.517 220.545C167.517 215.436 142.097 211.294 110.741 211.294C79.3848 211.294 53.9655 215.436 53.9655 220.545C53.9655 225.653 79.3848 229.795 110.741 229.795Z" fill="url(#paint1_linear)"/>
<path d="M103.568 209.355C103.568 209.355 104.795 216.575 104.135 217.398C103.475 218.221 99.6173 217.942 97.2419 217.475C94.8666 217.008 94.2922 214.238 94.2922 214.238L94.1291 211.964L103.568 209.355Z" fill="#F7AF81"/>
<path d="M135.721 206.851C135.721 206.851 137.274 215.682 136.746 216.45C136.218 217.217 132.577 217.098 130.458 216.868C128.339 216.638 128.067 211.81 128.067 211.81L127.71 209.836L135.721 206.851Z" fill="#F7AF81"/>
<path d="M104.314 36.4772C104.49 36.8434 104.708 37.1918 104.966 37.5166C105.781 38.8072 105.385 40.5651 106.394 41.7441C106.642 40.7953 108.723 34.1263 107.737 33.6938C107.504 33.5892 106.278 34.51 105.99 34.6286C105.105 34.9704 103.871 35.2425 104.314 36.4772Z" fill="#7D3B3D"/>
<path d="M130.481 120.642L132.5 157.656L136.381 208.944C136.381 208.944 134.153 211.343 127.741 211.42L116.206 159.226L110.772 132.717L106.115 158.591L104.166 212.487C104.166 212.487 99.6406 212.571 93.7565 213.045L89.9451 159.903L93.7177 118.745L130.481 120.642Z" fill="#B83280"/>
<path d="M130.481 120.642L132.5 157.656L136.381 208.944C136.381 208.944 134.153 211.343 127.741 211.42L116.206 159.226L110.772 132.717L106.115 158.591L104.166 212.487C104.166 212.487 99.6406 212.571 93.7565 213.045L89.9451 159.903L93.7177 118.745L130.481 120.642Z" fill="url(#paint2_linear)"/>
<path d="M97.6146 60.7047L94.0826 78.2492C93.7643 78.4375 83.6419 84.6112 82.4387 86.0343C81.2355 87.4574 76.1044 89.3688 74.3501 89.6479C72.5957 89.9269 68.6911 86.9273 69.3199 82.351C69.9487 77.7748 90.2789 62.6091 92.4059 61.5278C94.5328 60.4466 97.6146 60.7047 97.6146 60.7047Z" fill="white"/>
<path d="M95.3324 69.7454L94.0826 78.249C93.7643 78.4374 83.6419 84.6111 82.4387 86.0342C81.2355 87.4573 76.1044 89.3687 74.3501 89.6477C72.5957 89.9268 68.6911 86.9271 69.3199 82.3509L80.1875 80.9557L95.3324 69.7454Z" fill="url(#paint3_linear)"/>
<path d="M137.258 141.04C137.258 141.319 136.955 141.563 136.482 141.772C133.152 143.209 119.986 142.937 111.859 142.198C111.083 142.128 110.85 132.076 110.85 132.076C110.85 132.076 107.993 141.765 107.341 141.647C100.308 140.447 88.2994 139.205 88.2994 139.205C91.1804 128.859 92.9275 118.284 93.5159 107.632C94.5483 86.3064 92.1186 61.6604 92.8871 61.1023C94.2766 60.0978 107.721 56.3447 107.721 56.3447L121.694 57.433L123.41 58.1306C126.359 59.3025 132.166 61.6185 133.051 62.3161C133.097 62.3161 133.128 62.4696 133.159 62.6719C133.253 63.2997 133.299 64.7159 133.322 66.7459C133.377 71.4895 133.322 79.5746 133.369 88.8177C133.369 89.7944 133.369 90.785 133.369 91.7895C133.431 98.4306 133.579 105.539 133.874 112.348C134.432 125.044 137.336 140.084 137.258 141.04Z" fill="white"/>
<path d="M137.258 141.04C137.258 141.319 136.955 141.563 136.482 141.772C132.978 142.163 129.455 142.396 125.925 142.47L127.741 133.303L125.7 85.8668L130.916 79.3513L133.338 88.8246C133.338 96.2959 133.509 104.527 133.858 112.354C134.432 125.044 137.336 140.084 137.258 141.04Z" fill="url(#paint4_linear)"/>
<path d="M144.733 96.1425C143.422 97.8865 140.604 98.3608 138.446 97.5377C137.386 97.0833 136.442 96.4374 135.673 95.6404C134.904 94.8435 134.325 93.9125 133.975 92.9056C133.809 92.5027 133.601 92.1149 133.353 91.7476C132.274 90.0874 130.543 88.3364 130.466 86.6412C130.256 82.6161 128.595 78.598 128.587 74.5659C128.587 71.4616 130.916 68.1131 132.166 64.9251C132.471 64.1776 132.703 63.4073 132.857 62.6231C132.947 62.6126 133.038 62.6126 133.128 62.6231C134.836 62.8184 136.932 66.2715 137.576 67.4155C138.665 69.448 139.448 71.6015 139.905 73.8195C140.899 78.2771 141.846 80.4047 143.786 84.5903C144.477 86.0553 144.71 89.9827 145.184 91.5174C145.482 92.2722 145.597 93.0759 145.519 93.874C145.441 94.6721 145.174 95.4458 144.733 96.1425Z" fill="white"/>
<path d="M143.833 84.6112L140.146 88.7968C140.146 88.7968 137.77 82.6789 137.103 79.7769C136.497 77.2097 134.564 69.8641 133.299 66.7179C133.171 66.3779 133.02 66.0448 132.849 65.7204C132.666 65.4324 132.439 65.1693 132.174 64.9391C129.643 62.6579 121.966 59.156 121.966 59.156L123.386 58.1096C126.336 59.2816 132.143 61.5976 133.027 62.2952C133.074 62.2952 133.105 62.4487 133.136 62.651C134.844 62.8463 136.94 66.2994 137.584 67.4434C138.673 69.4759 139.456 71.6294 139.913 73.8473C140.906 78.298 141.854 80.4257 143.833 84.6112Z" fill="url(#paint5_linear)"/>
<path d="M122.113 48.2525C122.113 48.2525 121.221 54.0983 121.935 56.2609C122.649 58.4234 119.342 64.9041 114.444 65.3296C109.546 65.7551 108.793 58.242 108.7 57.3631C108.606 56.4841 110.042 55.9191 109.328 53.7565C108.614 51.594 121.36 45.6505 122.113 48.2525Z" fill="#F7AF81"/>
<path d="M109.328 53.7287C109.724 55.502 109.655 57.334 109.126 59.0792C110.423 59.9651 111.618 61.4859 113.008 61.3673C115.942 61.1301 120.134 55.2355 121.694 51.1197C121.694 51.0429 121.748 50.9662 121.772 50.8894C121.911 49.4105 122.082 48.2525 122.082 48.2525C121.36 45.6505 108.622 51.5661 109.328 53.7287Z" fill="#F69771"/>
<path d="M106.115 35.4308C106.115 35.4308 105.005 46.9201 105.952 50.0175C106.899 53.1148 109.833 55.8005 112.775 55.8284C115.717 55.8563 120.18 53.6868 122.191 49.7245C124.201 45.7621 125.296 36.0516 124.822 34.7192C124.349 33.3868 121.422 29.1803 113.559 29.7523C108.148 30.143 106.138 33.6659 106.115 35.4308Z" fill="#F7AF81"/>
<path d="M122.967 41.9742C122.967 41.9742 123.192 39.2885 125.242 40.014C127.291 40.7395 125.327 45.7761 124.388 46.2924C123.975 46.5735 123.483 46.7451 122.967 46.7876" fill="#F7AF81"/>
<path d="M77.6026 86.9133C77.6026 86.9133 82.1592 85.8041 80.5679 79.6165C78.9766 73.4288 73.2245 55.2007 73.2245 55.2007L68.0158 58.9607C68.0158 58.9607 66.2071 83.9834 70.0108 86.1669C71.1286 86.8044 72.3942 87.2031 73.7102 87.3325C75.0263 87.4619 76.3578 87.3185 77.6026 86.9133Z" fill="#F7AF81"/>
<path d="M73.2245 55.2216C73.2245 55.2216 74.0008 51.9848 73.6281 51.1197C73.2555 50.2547 69.4519 44.0531 67.9537 44.953C66.4555 45.8529 64.313 51.8313 64.1423 52.2359C63.9715 52.6405 68.0158 58.9607 68.0158 58.9607L73.2245 55.2216Z" fill="#F7AF81"/>
<path d="M145.898 95.5285L158.838 79.7001L158.458 70.157L136.955 90.0524C136.382 90.6039 135.959 91.2673 135.719 91.9905C135.48 92.7137 135.429 93.477 135.573 94.2205C135.717 94.964 136.05 95.6674 136.547 96.2756C137.044 96.8839 137.692 97.3803 138.438 97.7259L140.037 97.8724C141.157 97.9786 142.288 97.8179 143.317 97.4064C144.346 96.995 145.236 96.3473 145.898 95.5285Z" fill="#F7AF81"/>
<path d="M157.091 80.3211C158.301 80.0972 159.485 79.7774 160.631 79.3654C161.578 78.9119 164.59 69.2503 163.736 68.6085C162.882 67.9667 159.343 66.153 158.357 66.7389C157.371 67.3249 152.054 71.9151 152.054 71.9151C152.054 71.9151 153.56 81.2838 157.091 80.3211Z" fill="#F7AF81"/>
<path d="M107.729 56.3446L109.041 55.4727C109.041 55.4727 110.594 62.5532 113.404 63.2648C113.404 63.2648 117.883 64.8413 121.733 55.5912L123.208 58.263C123.208 58.263 120.483 64.067 119.016 64.6809C117.549 65.2948 113.303 68.992 109.491 64.067C107.683 61.7022 107.729 56.3446 107.729 56.3446Z" fill="#B83280"/>
<path d="M107.729 56.3446L109.041 55.4727C109.041 55.4727 110.594 62.5532 113.404 63.2648C113.404 63.2648 117.883 64.8413 121.733 55.5912L123.208 58.263C123.208 58.263 120.483 64.067 119.016 64.6809C117.549 65.2948 113.303 68.992 109.491 64.067C107.683 61.7022 107.729 56.3446 107.729 56.3446Z" fill="url(#paint6_linear)"/>
<path d="M75.6309 47.9526C76.3597 47.3666 76.9853 46.6845 77.4861 45.9296C77.5623 45.8141 77.5847 45.6762 77.5483 45.5459C77.5013 45.4654 77.4282 45.3997 77.3387 45.3576C77.0084 45.1894 76.6353 45.1011 76.2558 45.1011C75.8762 45.1011 75.5031 45.1894 75.1729 45.3576C74.5114 45.7009 73.9974 46.234 73.7135 46.8714C73.6154 47.1428 73.4628 47.3958 73.2633 47.6178C73.0066 47.7873 72.7092 47.9002 72.395 47.9474C72.0809 47.9947 71.7587 47.975 71.4546 47.8899C71.3035 47.8441 71.1399 47.8441 70.9889 47.8899C70.7482 48.0015 70.7172 48.2945 70.7405 48.5386C70.8103 49.299 71.8816 51.8871 73.1236 51.6917C73.6359 51.608 73.8998 50.2966 74.1094 49.9268C74.5138 49.2094 75.0257 48.5451 75.6309 47.9526Z" fill="#F7AF81"/>
<path d="M105.983 34.5447C105.983 34.5447 116.85 31.2242 125.148 39.1698L126.041 28.5873C127.402 28.4685 128.738 28.1772 130.008 27.7223C132.5 26.9061 133.889 22.0229 130.683 21.2067C129.714 20.9842 128.702 20.9601 127.721 21.1364C126.74 21.3127 125.816 21.6848 125.016 22.2252C125.016 22.2252 127.741 17.1328 120.429 17.1328C120.429 17.1328 116.858 17.7397 116.183 19.8813C116.183 19.8813 113.8 15.4516 109.724 17.1328C105.649 18.814 106.153 20.7952 106.153 20.7952C106.153 20.7952 103.258 19.7278 102.412 21.1021C101.566 22.4764 101.193 24.6389 103.964 24.9249C108.381 25.3784 107.481 26.1945 107.481 26.1945L105.983 34.5447Z" fill="white"/>
<path d="M122.082 44.3809C123.173 43.0071 124.048 41.5048 124.683 39.9163C124.926 40.2926 125.308 40.5812 125.762 40.7325C125.989 40.8025 126.236 40.8028 126.463 40.7334C126.691 40.664 126.886 40.5287 127.019 40.3488C127.112 40.1716 127.142 39.9731 127.106 39.7799C127.07 39.5867 126.969 39.4079 126.817 39.2676C126.511 38.9882 126.109 38.8089 125.676 38.7583C125.554 38.75 125.438 38.7087 125.343 38.6397C125.141 38.4444 125.342 38.1026 125.226 37.8794C125.131 37.7803 125.003 37.7117 124.861 37.684C124.155 37.4748 123.053 36.9864 122.369 36.8469C122.012 37.8724 122.796 39.3583 122.711 40.4814C122.607 41.7932 122.396 43.0965 122.082 44.3809Z" fill="#7D3B3D"/>
<path d="M123.542 50.429C123.514 50.7289 123.444 51.0243 123.332 51.308C123.009 51.8766 122.524 52.358 121.927 52.7031C121.845 52.7675 121.746 52.813 121.64 52.8357C121.533 52.8347 121.429 52.7988 121.349 52.7347C121.27 52.6705 121.218 52.5825 121.205 52.4869C121.183 52.2932 121.221 52.0978 121.314 51.9218L122.82 48.0851C122.94 47.8019 123.033 47.5103 123.099 47.2131C123.111 47.0739 123.148 46.9373 123.208 46.8085C123.316 46.6201 123.697 46.3481 123.984 46.4736C124.271 46.5992 124.031 47.3107 123.984 47.5479L123.542 50.429Z" fill="#7D3B3D"/>
<path d="M135.861 75.2773L182.592 65.5528L174.79 65.0854L140.953 72.3474L135.861 75.2773Z" fill="#B83280"/>
<path d="M135.861 75.2773L182.592 65.5528L174.79 65.0854L140.953 72.3474L135.861 75.2773Z" fill="url(#paint7_linear)"/>
<path d="M140.984 72.3545C140.984 72.3545 137.274 57.419 151.852 54.5728C169.869 51.0848 174.759 65.0925 174.759 65.0925L140.984 72.3545Z" fill="#B83280"/>
<path d="M174.79 65.0924L140.984 72.3544C140.984 72.3544 137.274 57.4189 151.852 54.5727C152.713 54.4053 153.544 54.2797 154.344 54.189C169.092 52.5009 173.991 63.1671 174.674 64.8622L174.79 65.0924Z" fill="url(#paint8_linear)"/>
<path d="M174.697 64.8623L147.419 70.7221C147.419 70.7221 144.454 58.7165 154.406 54.1891C169.085 52.5009 174.014 63.1462 174.697 64.8623Z" fill="url(#paint9_linear)"/>
<path d="M151.316 54.7681C152.191 54.7681 152.9 54.1309 152.9 53.345C152.9 52.559 152.191 51.9219 151.316 51.9219C150.442 51.9219 149.733 52.559 149.733 53.345C149.733 54.1309 150.442 54.7681 151.316 54.7681Z" fill="#B83280"/>
<path d="M83.5798 216.812C82.2291 217.273 80.8008 217.984 80.8008 219.54C80.8091 220.156 81.0438 220.752 81.4684 221.235C83.1218 223.23 86.1803 223.328 88.8661 223.23C93.8792 223 98.862 222.393 103.763 221.417C104.097 221.373 104.415 221.256 104.686 221.075C104.945 220.814 105.108 220.487 105.152 220.14C105.498 218.622 105.551 217.063 105.307 215.529C105.286 215.388 105.223 215.254 105.125 215.141C105.027 215.029 104.898 214.942 104.75 214.889C104.603 214.835 104.443 214.818 104.286 214.839C104.128 214.859 103.98 214.917 103.856 215.006C102.882 215.724 101.644 216.088 100.386 216.024C97.3972 215.85 96.2561 213.499 93.2054 214.301C90.0305 215.131 86.646 215.752 83.5798 216.812Z" fill="#B83280"/>
<path d="M115.795 215.975C114.444 216.436 113.016 217.147 113.008 218.696C113.022 219.314 113.259 219.911 113.683 220.398C115.329 222.393 118.395 222.491 121.081 222.386C126.094 222.156 131.077 221.549 135.977 220.572C136.313 220.532 136.631 220.414 136.901 220.231C137.163 219.971 137.326 219.644 137.367 219.296C137.715 217.762 137.764 216.185 137.514 214.636C137.493 214.499 137.432 214.37 137.337 214.261C137.242 214.152 137.117 214.068 136.974 214.017C136.832 213.966 136.676 213.95 136.524 213.97C136.372 213.991 136.229 214.047 136.109 214.134C135.138 214.886 133.882 215.276 132.601 215.222C129.612 215.04 128.463 212.696 125.42 213.492C122.245 214.294 118.892 214.915 115.795 215.975Z" fill="#B83280"/>
<path d="M83.5798 216.812C82.2291 217.273 80.8008 217.984 80.8008 219.54C80.8091 220.156 81.0438 220.752 81.4684 221.235C83.1218 223.23 86.1803 223.328 88.8661 223.23C93.8792 223 98.862 222.393 103.763 221.417C104.097 221.373 104.415 221.256 104.686 221.075C104.945 220.814 105.108 220.487 105.152 220.14C105.498 218.622 105.551 217.063 105.307 215.529C105.286 215.388 105.223 215.254 105.125 215.141C105.027 215.029 104.898 214.942 104.75 214.889C104.603 214.835 104.443 214.818 104.286 214.839C104.128 214.859 103.98 214.917 103.856 215.006C102.882 215.724 101.644 216.088 100.386 216.024C97.3972 215.85 96.2561 213.499 93.2054 214.301C90.0305 215.131 86.646 215.752 83.5798 216.812Z" fill="url(#paint10_linear)"/>
<path d="M115.795 215.975C114.444 216.436 113.016 217.147 113.008 218.696C113.022 219.314 113.259 219.911 113.683 220.398C115.329 222.393 118.395 222.491 121.081 222.386C126.094 222.156 131.077 221.549 135.977 220.572C136.313 220.532 136.631 220.414 136.901 220.231C137.163 219.971 137.326 219.644 137.367 219.296C137.715 217.762 137.764 216.185 137.514 214.636C137.493 214.499 137.432 214.37 137.337 214.261C137.242 214.152 137.117 214.068 136.974 214.017C136.832 213.966 136.676 213.95 136.524 213.97C136.372 213.991 136.229 214.047 136.109 214.134C135.138 214.886 133.882 215.276 132.601 215.222C129.612 215.04 128.463 212.696 125.42 213.492C122.245 214.294 118.892 214.915 115.795 215.975Z" fill="url(#paint11_linear)"/>
<path d="M109.895 73.917C110.427 73.917 110.858 73.5298 110.858 73.052C110.858 72.5743 110.427 72.187 109.895 72.187C109.363 72.187 108.932 72.5743 108.932 73.052C108.932 73.5298 109.363 73.917 109.895 73.917Z" fill="#B83280"/>
<path d="M108.024 85.274C108.556 85.274 108.987 84.8867 108.987 84.409C108.987 83.9312 108.556 83.5439 108.024 83.5439C107.493 83.5439 107.062 83.9312 107.062 84.409C107.062 84.8867 107.493 85.274 108.024 85.274Z" fill="#B83280"/>
<path d="M107.683 98.9187C108.214 98.9187 108.645 98.5315 108.645 98.0537C108.645 97.576 108.214 97.1887 107.683 97.1887C107.151 97.1887 106.72 97.576 106.72 98.0537C106.72 98.5315 107.151 98.9187 107.683 98.9187Z" fill="#B83280"/>
<path d="M108.249 110.171C108.781 110.171 109.212 109.784 109.212 109.306C109.212 108.828 108.781 108.441 108.249 108.441C107.718 108.441 107.287 108.828 107.287 109.306C107.287 109.784 107.718 110.171 108.249 110.171Z" fill="#B83280"/>
<path d="M108.474 126.976C109.006 126.976 109.437 126.589 109.437 126.111C109.437 125.633 109.006 125.246 108.474 125.246C107.943 125.246 107.512 125.633 107.512 126.111C107.512 126.589 107.943 126.976 108.474 126.976Z" fill="#B83280"/>
<path d="M130.489 111.859C131.635 111.747 132.794 111.889 133.866 112.271C134.898 112.738 135.667 113.847 135.248 114.81C134.955 115.298 134.583 115.745 134.145 116.136C133.09 117.37 133.051 119.051 133.066 120.614L133.439 166.397C133.439 167.96 133.268 169.836 131.731 170.583C131.037 170.854 130.281 170.971 129.527 170.925C116.46 171.073 103.395 171.197 90.3332 171.294C88.9748 171.294 87.3679 171.197 86.677 170.143C86.399 169.624 86.2683 169.051 86.2967 168.476C85.603 150.32 87.5102 132.159 91.9711 114.44C92.0734 113.748 92.3939 113.097 92.8949 112.564C93.6711 111.866 98.0027 112.71 99.1671 112.689C102.699 112.634 106.223 112.508 109.747 112.417L130.489 111.859Z" fill="#B83280"/>
<path d="M130.489 111.859C131.635 111.747 132.794 111.889 133.866 112.271C134.898 112.738 135.667 113.847 135.248 114.81C134.955 115.298 134.583 115.745 134.145 116.136C133.09 117.37 133.051 119.051 133.066 120.614L133.439 166.397C133.439 167.96 133.268 169.836 131.731 170.583C131.037 170.854 130.281 170.971 129.527 170.925C116.46 171.073 103.395 171.197 90.3332 171.294C88.9748 171.294 87.3679 171.197 86.677 170.143C86.399 169.624 86.2683 169.051 86.2967 168.476C85.603 150.32 87.5102 132.159 91.9711 114.44C92.0734 113.748 92.3939 113.097 92.8949 112.564C93.6711 111.866 98.0027 112.71 99.1671 112.689C102.699 112.634 106.223 112.508 109.747 112.417L130.489 111.859Z" fill="url(#paint12_linear)"/>
</g>
<circle cx="12.5" cy="12.5" r="12.5" fill="#B83280"/>
<path d="M10.4277 11.626H11.7285C12.3848 11.6201 12.9033 11.4502 13.2842 11.1162C13.6709 10.7822 13.8643 10.2988 13.8643 9.66602C13.8643 9.05664 13.7031 8.58496 13.3809 8.25098C13.0645 7.91113 12.5781 7.74121 11.9219 7.74121C11.3477 7.74121 10.876 7.9082 10.5068 8.24219C10.1377 8.57031 9.95312 9.00098 9.95312 9.53418H7.81738C7.81738 8.87793 7.99023 8.28027 8.33594 7.74121C8.6875 7.20215 9.17383 6.7832 9.79492 6.48438C10.4219 6.17969 11.1221 6.02734 11.8955 6.02734C13.1729 6.02734 14.1748 6.34961 14.9014 6.99414C15.6338 7.63281 16 8.52344 16 9.66602C16 10.2402 15.8154 10.7822 15.4463 11.292C15.083 11.7959 14.6113 12.1768 14.0312 12.4346C14.7344 12.6748 15.2676 13.0527 15.6309 13.5684C16 14.084 16.1846 14.6992 16.1846 15.4141C16.1846 16.5625 15.7891 17.4766 14.998 18.1562C14.2129 18.8359 13.1787 19.1758 11.8955 19.1758C10.665 19.1758 9.65723 18.8477 8.87207 18.1914C8.08691 17.5352 7.69434 16.6621 7.69434 15.5723H9.83008C9.83008 16.1348 10.0176 16.5918 10.3926 16.9434C10.7734 17.2949 11.2832 17.4707 11.9219 17.4707C12.584 17.4707 13.1055 17.2949 13.4863 16.9434C13.8672 16.5918 14.0576 16.082 14.0576 15.4141C14.0576 14.7402 13.8584 14.2217 13.46 13.8584C13.0615 13.4951 12.4697 13.3135 11.6846 13.3135H10.4277V11.626Z" fill="white"/>
<defs>
<linearGradient id="paint0_linear" x1="156.044" y1="26.8435" x2="158.515" y2="69.6469" gradientUnits="userSpaceOnUse">
<stop offset="0.02" stop-color="white" stop-opacity="0"/>
<stop offset="0.39" stop-color="white" stop-opacity="0.39"/>
<stop offset="1" stop-color="white"/>
</linearGradient>
<linearGradient id="paint1_linear" x1="116.586" y1="150.136" x2="109.997" y2="248.434" gradientUnits="userSpaceOnUse">
<stop offset="0.01"/>
<stop offset="0.83" stop-opacity="0.07"/>
<stop offset="1" stop-opacity="0"/>
</linearGradient>
<linearGradient id="paint2_linear" x1="9185.79" y1="13588.7" x2="13132" y2="37760.6" gradientUnits="userSpaceOnUse">
<stop offset="0.01"/>
<stop offset="0.83" stop-opacity="0.07"/>
<stop offset="1" stop-opacity="0"/>
</linearGradient>
<linearGradient id="paint3_linear" x1="4719.89" y1="3096.24" x2="4460.31" y2="2076.48" gradientUnits="userSpaceOnUse">
<stop offset="0.01"/>
<stop offset="0.83" stop-opacity="0.07"/>
<stop offset="1" stop-opacity="0"/>
</linearGradient>
<linearGradient id="paint4_linear" x1="3717.51" y1="10558.3" x2="2478.69" y2="10546.2" gradientUnits="userSpaceOnUse">
<stop offset="0.01"/>
<stop offset="0.83" stop-opacity="0.07"/>
<stop offset="1" stop-opacity="0"/>
</linearGradient>
<linearGradient id="paint5_linear" x1="5910.21" y1="2585.5" x2="4784.44" y2="3158.56" gradientUnits="userSpaceOnUse">
<stop offset="0.01"/>
<stop offset="0.83" stop-opacity="0.07"/>
<stop offset="1" stop-opacity="0"/>
</linearGradient>
<linearGradient id="paint6_linear" x1="3338.14" y1="742.153" x2="3327.68" y2="1321.73" gradientUnits="userSpaceOnUse">
<stop offset="0.01"/>
<stop offset="0.83" stop-opacity="0.07"/>
<stop offset="1" stop-opacity="0"/>
</linearGradient>
<linearGradient id="paint7_linear" x1="9455.85" y1="922.322" x2="9475.25" y2="1186.07" gradientUnits="userSpaceOnUse">
<stop offset="0.01"/>
<stop offset="0.83" stop-opacity="0.07"/>
<stop offset="1" stop-opacity="0"/>
</linearGradient>
<linearGradient id="paint8_linear" x1="8877.67" y1="1384.08" x2="8967.98" y2="2024.37" gradientUnits="userSpaceOnUse">
<stop offset="0.02" stop-color="white" stop-opacity="0"/>
<stop offset="0.39" stop-color="white" stop-opacity="0.39"/>
<stop offset="1" stop-color="white"/>
</linearGradient>
<linearGradient id="paint9_linear" x1="7334.54" y1="1256.06" x2="7423.96" y2="1819.42" gradientUnits="userSpaceOnUse">
<stop offset="0.02" stop-color="white" stop-opacity="0"/>
<stop offset="0.39" stop-color="white" stop-opacity="0.39"/>
<stop offset="1" stop-color="white"/>
</linearGradient>
<linearGradient id="paint10_linear" x1="4412.52" y1="2774.1" x2="4445.36" y2="3610.39" gradientUnits="userSpaceOnUse">
<stop offset="0.01"/>
<stop offset="0.83" stop-opacity="0.07"/>
<stop offset="1" stop-opacity="0"/>
</linearGradient>
<linearGradient id="paint11_linear" x1="5466.38" y1="2742.29" x2="5498.93" y2="3575.41" gradientUnits="userSpaceOnUse">
<stop offset="0.01"/>
<stop offset="0.83" stop-opacity="0.07"/>
<stop offset="1" stop-opacity="0"/>
</linearGradient>
<linearGradient id="paint12_linear" x1="10039.6" y1="16272.2" x2="10008.7" y2="7728.47" gradientUnits="userSpaceOnUse">
<stop offset="0.01"/>
<stop offset="0.83" stop-opacity="0.07"/>
<stop offset="1" stop-opacity="0"/>
</linearGradient>
<clipPath id="clip0">
<rect width="226" height="243" fill="white"/>
</clipPath>
</defs>
</svg>
