<svg width="96" height="16" viewBox="0 0 96 16" fill="none" xmlns="http://www.w3.org/2000/svg">
<path d="M0.15625 12V0.625H4.05469C5.34115 0.625 6.32031 0.882812 6.99219 1.39844C7.66406 1.91406 8 2.68229 8 3.70312C8 4.22396 7.85938 4.69271 7.57812 5.10938C7.29688 5.52604 6.88542 5.84896 6.34375 6.07812C6.95833 6.24479 7.43229 6.5599 7.76562 7.02344C8.10417 7.48177 8.27344 8.03385 8.27344 8.67969C8.27344 9.7474 7.92969 10.5677 7.24219 11.1406C6.5599 11.7135 5.58073 12 4.30469 12H0.15625ZM2.13281 6.86719V10.4219H4.32812C4.94792 10.4219 5.43229 10.2682 5.78125 9.96094C6.13021 9.65365 6.30469 9.22656 6.30469 8.67969C6.30469 7.4974 5.70052 6.89323 4.49219 6.86719H2.13281ZM2.13281 5.41406H4.07031C4.6849 5.41406 5.16406 5.27604 5.50781 5C5.85677 4.71875 6.03125 4.32292 6.03125 3.8125C6.03125 3.25 5.86979 2.84375 5.54688 2.59375C5.22917 2.34375 4.73177 2.21875 4.05469 2.21875H2.13281V5.41406ZM15.1172 12C15.0339 11.8385 14.9609 11.5755 14.8984 11.2109C14.2943 11.8411 13.5547 12.1562 12.6797 12.1562C11.8307 12.1562 11.138 11.9141 10.6016 11.4297C10.0651 10.9453 9.79688 10.3464 9.79688 9.63281C9.79688 8.73177 10.1302 8.04167 10.7969 7.5625C11.4688 7.07812 12.4271 6.83594 13.6719 6.83594H14.8359V6.28125C14.8359 5.84375 14.7135 5.49479 14.4688 5.23438C14.224 4.96875 13.8516 4.83594 13.3516 4.83594C12.9193 4.83594 12.5651 4.94531 12.2891 5.16406C12.013 5.3776 11.875 5.65104 11.875 5.98438H9.97656C9.97656 5.52083 10.1302 5.08854 10.4375 4.6875C10.7448 4.28125 11.1615 3.96354 11.6875 3.73438C12.2188 3.50521 12.8099 3.39062 13.4609 3.39062C14.4505 3.39062 15.2396 3.64062 15.8281 4.14062C16.4167 4.63542 16.7188 5.33333 16.7344 6.23438V10.0469C16.7344 10.8073 16.8411 11.4141 17.0547 11.8672V12H15.1172ZM13.0312 10.6328C13.4062 10.6328 13.7578 10.5417 14.0859 10.3594C14.4193 10.1771 14.6693 9.93229 14.8359 9.625V8.03125H13.8125C13.1094 8.03125 12.5807 8.15365 12.2266 8.39844C11.8724 8.64323 11.6953 8.98958 11.6953 9.4375C11.6953 9.80208 11.8151 10.0938 12.0547 10.3125C12.2995 10.526 12.625 10.6328 13.0312 10.6328ZM21.4688 8.375L20.625 9.24219V12H18.7266V0H20.625V6.92188L21.2188 6.17969L23.5547 3.54688H25.8359L22.6953 7.07031L26.1719 12H23.9766L21.4688 8.375ZM30.6484 12.1562C29.4453 12.1562 28.4688 11.7786 27.7188 11.0234C26.974 10.263 26.6016 9.2526 26.6016 7.99219V7.75781C26.6016 6.91406 26.763 6.16146 27.0859 5.5C27.4141 4.83333 27.8724 4.3151 28.4609 3.94531C29.0495 3.57552 29.7057 3.39062 30.4297 3.39062C31.5807 3.39062 32.4688 3.75781 33.0938 4.49219C33.724 5.22656 34.0391 6.26562 34.0391 7.60938V8.375H28.5156C28.5729 9.07292 28.8047 9.625 29.2109 10.0312C29.6224 10.4375 30.138 10.6406 30.7578 10.6406C31.6276 10.6406 32.3359 10.2891 32.8828 9.58594L33.9062 10.5625C33.5677 11.0677 33.1146 11.4609 32.5469 11.7422C31.9844 12.0182 31.3516 12.1562 30.6484 12.1562ZM30.4219 4.91406C29.901 4.91406 29.4792 5.09635 29.1562 5.46094C28.8385 5.82552 28.6354 6.33333 28.5469 6.98438H32.1641V6.84375C32.1224 6.20833 31.9531 5.72917 31.6562 5.40625C31.3594 5.07812 30.9479 4.91406 30.4219 4.91406ZM39.9453 5.28125C39.6953 5.23958 39.4375 5.21875 39.1719 5.21875C38.3021 5.21875 37.7161 5.55208 37.4141 6.21875V12H35.5156V3.54688H37.3281L37.375 4.49219C37.8333 3.75781 38.4688 3.39062 39.2812 3.39062C39.5521 3.39062 39.776 3.42708 39.9531 3.5L39.9453 5.28125ZM44.2422 9.28125L45.9609 3.54688H47.9844L44.625 13.2812C44.1094 14.7031 43.2344 15.4141 42 15.4141C41.724 15.4141 41.4193 15.3672 41.0859 15.2734V13.8047L41.4453 13.8281C41.9245 13.8281 42.2839 13.7396 42.5234 13.5625C42.7682 13.3906 42.9609 13.099 43.1016 12.6875L43.375 11.9609L40.4062 3.54688H42.4531L44.2422 9.28125Z" fill="#1A202C"/>
<path d="M54.9375 4.46875C55.5573 3.75 56.3411 3.39062 57.2891 3.39062C59.0911 3.39062 60.0052 4.41927 60.0312 6.47656V12H58.1328V6.54688C58.1328 5.96354 58.0052 5.55208 57.75 5.3125C57.5 5.06771 57.1302 4.94531 56.6406 4.94531C55.8802 4.94531 55.3125 5.28385 54.9375 5.96094V12H53.0391V0H54.9375V4.46875ZM61.6016 7.69531C61.6016 6.86719 61.7656 6.1224 62.0938 5.46094C62.4219 4.79427 62.8828 4.28385 63.4766 3.92969C64.0703 3.57031 64.7526 3.39062 65.5234 3.39062C66.6641 3.39062 67.5885 3.75781 68.2969 4.49219C69.0104 5.22656 69.3958 6.20052 69.4531 7.41406L69.4609 7.85938C69.4609 8.69271 69.2995 9.4375 68.9766 10.0938C68.6589 10.75 68.2005 11.2578 67.6016 11.6172C67.0078 11.9766 66.3203 12.1562 65.5391 12.1562C64.3464 12.1562 63.3906 11.7604 62.6719 10.9688C61.9583 10.1719 61.6016 9.11198 61.6016 7.78906V7.69531ZM63.5 7.85938C63.5 8.72917 63.6797 9.41146 64.0391 9.90625C64.3984 10.3958 64.8984 10.6406 65.5391 10.6406C66.1797 10.6406 66.6771 10.3906 67.0312 9.89062C67.3906 9.39062 67.5703 8.65885 67.5703 7.69531C67.5703 6.84115 67.3854 6.16406 67.0156 5.66406C66.651 5.16406 66.1536 4.91406 65.5234 4.91406C64.9036 4.91406 64.4115 5.16146 64.0469 5.65625C63.6823 6.14583 63.5 6.88021 63.5 7.85938ZM76.1875 11.1719C75.6302 11.8281 74.8385 12.1562 73.8125 12.1562C72.8958 12.1562 72.2005 11.888 71.7266 11.3516C71.2578 10.8151 71.0234 10.0391 71.0234 9.02344V3.54688H72.9219V9C72.9219 10.0729 73.3672 10.6094 74.2578 10.6094C75.1797 10.6094 75.8021 10.2786 76.125 9.61719V3.54688H78.0234V12H76.2344L76.1875 11.1719ZM84.6953 9.70312C84.6953 9.36458 84.5547 9.10677 84.2734 8.92969C83.9974 8.7526 83.5365 8.59635 82.8906 8.46094C82.2448 8.32552 81.7057 8.15365 81.2734 7.94531C80.3255 7.48698 79.8516 6.82292 79.8516 5.95312C79.8516 5.22396 80.1589 4.61458 80.7734 4.125C81.388 3.63542 82.1693 3.39062 83.1172 3.39062C84.1276 3.39062 84.9427 3.64062 85.5625 4.14062C86.1875 4.64062 86.5 5.28906 86.5 6.08594H84.6016C84.6016 5.72135 84.4661 5.41927 84.1953 5.17969C83.9245 4.9349 83.5651 4.8125 83.1172 4.8125C82.7005 4.8125 82.3594 4.90885 82.0938 5.10156C81.8333 5.29427 81.7031 5.55208 81.7031 5.875C81.7031 6.16667 81.8255 6.39323 82.0703 6.55469C82.3151 6.71615 82.8099 6.88021 83.5547 7.04688C84.2995 7.20833 84.8828 7.40365 85.3047 7.63281C85.7318 7.85677 86.0469 8.1276 86.25 8.44531C86.4583 8.76302 86.5625 9.14844 86.5625 9.60156C86.5625 10.362 86.2474 10.9792 85.6172 11.4531C84.987 11.9219 84.1615 12.1562 83.1406 12.1562C82.4479 12.1562 81.8307 12.0312 81.2891 11.7812C80.7474 11.5312 80.3255 11.1875 80.0234 10.75C79.7214 10.3125 79.5703 9.84115 79.5703 9.33594H81.4141C81.4401 9.78385 81.6094 10.1302 81.9219 10.375C82.2344 10.6146 82.6484 10.7344 83.1641 10.7344C83.6641 10.7344 84.0443 10.6406 84.3047 10.4531C84.5651 10.2604 84.6953 10.0104 84.6953 9.70312ZM91.9453 12.1562C90.7422 12.1562 89.7656 11.7786 89.0156 11.0234C88.2708 10.263 87.8984 9.2526 87.8984 7.99219V7.75781C87.8984 6.91406 88.0599 6.16146 88.3828 5.5C88.7109 4.83333 89.1693 4.3151 89.7578 3.94531C90.3464 3.57552 91.0026 3.39062 91.7266 3.39062C92.8776 3.39062 93.7656 3.75781 94.3906 4.49219C95.0208 5.22656 95.3359 6.26562 95.3359 7.60938V8.375H89.8125C89.8698 9.07292 90.1016 9.625 90.5078 10.0312C90.9193 10.4375 91.4349 10.6406 92.0547 10.6406C92.9245 10.6406 93.6328 10.2891 94.1797 9.58594L95.2031 10.5625C94.8646 11.0677 94.4115 11.4609 93.8438 11.7422C93.2812 12.0182 92.6484 12.1562 91.9453 12.1562ZM91.7188 4.91406C91.1979 4.91406 90.776 5.09635 90.4531 5.46094C90.1354 5.82552 89.9323 6.33333 89.8438 6.98438H93.4609V6.84375C93.4193 6.20833 93.25 5.72917 92.9531 5.40625C92.6562 5.07812 92.2448 4.91406 91.7188 4.91406Z" fill="#3182CE"/>
</svg>
