<svg width="24" height="21" viewBox="0 0 24 21" fill="none" xmlns="http://www.w3.org/2000/svg">
<path fill-rule="evenodd" clip-rule="evenodd" d="M0 1.71429C0 1.25963 0.180612 0.823594 0.502103 0.502103C0.823594 0.180612 1.25963 0 1.71429 0H22.2857C22.7404 0 23.1764 0.180612 23.4979 0.502103C23.8194 0.823594 24 1.25963 24 1.71429C24 2.16894 23.8194 2.60498 23.4979 2.92647C23.1764 3.24796 22.7404 3.42857 22.2857 3.42857H1.71429C1.25963 3.42857 0.823594 3.24796 0.502103 2.92647C0.180612 2.60498 0 2.16894 0 1.71429ZM0 10.2857C0 9.83106 0.180612 9.39502 0.502103 9.07353C0.823594 8.75204 1.25963 8.57143 1.71429 8.57143H22.2857C22.7404 8.57143 23.1764 8.75204 23.4979 9.07353C23.8194 9.39502 24 9.83106 24 10.2857C24 10.7404 23.8194 11.1764 23.4979 11.4979C23.1764 11.8194 22.7404 12 22.2857 12H1.71429C1.25963 12 0.823594 11.8194 0.502103 11.4979C0.180612 11.1764 0 10.7404 0 10.2857ZM10.2857 18.8571C10.2857 18.4025 10.4663 17.9665 10.7878 17.645C11.1093 17.3235 11.5453 17.1429 12 17.1429H22.2857C22.7404 17.1429 23.1764 17.3235 23.4979 17.645C23.8194 17.9665 24 18.4025 24 18.8571C24 19.3118 23.8194 19.7478 23.4979 20.0693C23.1764 20.3908 22.7404 20.5714 22.2857 20.5714H12C11.5453 20.5714 11.1093 20.3908 10.7878 20.0693C10.4663 19.7478 10.2857 19.3118 10.2857 18.8571Z" fill="#1A202C"/>
</svg>
