<svg width="26" height="25" viewBox="0 0 26 25" fill="none" xmlns="http://www.w3.org/2000/svg">
<path d="M14.1506 0.454827C13.8454 0.163601 13.4316 0 13 0C12.5684 0 12.1546 0.163601 11.8494 0.454827L0.456858 11.3289C0.160396 11.6219 -0.0036466 12.0143 6.15238e-05 12.4216C0.00376965 12.8289 0.174932 13.2185 0.476684 13.5066C0.778435 13.7946 1.18663 13.958 1.61336 13.9615C2.04008 13.965 2.45119 13.8085 2.75814 13.5255L3.235 13.0703V23.3013C3.235 23.7133 3.40647 24.1084 3.71168 24.3997C4.0169 24.6911 4.43086 24.8547 4.8625 24.8547H8.1175C8.54914 24.8547 8.9631 24.6911 9.26832 24.3997C9.57353 24.1084 9.745 23.7133 9.745 23.3013V20.1944C9.745 19.7824 9.91647 19.3873 10.2217 19.096C10.5269 18.8046 10.9409 18.641 11.3725 18.641H14.6275C15.0591 18.641 15.4731 18.8046 15.7783 19.096C16.0835 19.3873 16.255 19.7824 16.255 20.1944V23.3013C16.255 23.7133 16.4265 24.1084 16.7317 24.3997C17.0369 24.6911 17.4509 24.8547 17.8825 24.8547H21.1375C21.5691 24.8547 21.9831 24.6911 22.2883 24.3997C22.5935 24.1084 22.765 23.7133 22.765 23.3013V13.0703L23.2419 13.5255C23.5488 13.8085 23.9599 13.965 24.3866 13.9615C24.8134 13.958 25.2216 13.7946 25.5233 13.5066C25.8251 13.2185 25.9962 12.8289 25.9999 12.4216C26.0036 12.0143 25.8396 11.6219 25.5431 11.3289L14.1506 0.454827V0.454827Z" fill="#3182CE"/>
</svg>
